<?xml version="1.0" standalone="no"?>
<!DOCTYPE svg PUBLIC "-//W3C//DTD SVG 20010904//EN"
 "http://www.w3.org/TR/2001/REC-SVG-20010904/DTD/svg10.dtd">
<svg version="1.0" xmlns="http://www.w3.org/2000/svg"
 width="935.000000pt" height="980.000000pt" viewBox="0 0 935.000000 980.000000"
 preserveAspectRatio="xMidYMid meet">

<g transform="translate(0.000000,980.000000) scale(0.100000,-0.100000)"
fill="#000000" stroke="none">
<path d="M4570 9789 c-1521 -103 -2925 -928 -3764 -2211 -429 -657 -681 -1369
-773 -2180 -24 -216 -24 -780 0 -996 132 -1171 620 -2184 1443 -2994 180 -178
292 -274 489 -423 591 -445 1258 -744 1985 -889 1597 -319 3247 176 4395 1319
387 386 698 811 928 1272 l76 151 -116 -55 c-451 -212 -937 -343 -1431 -384
-186 -15 -674 -6 -832 16 -579 80 -1066 241 -1545 513 -317 179 -684 465 -932
726 -921 967 -1321 2287 -1087 3591 169 946 679 1824 1414 2434 69 57 129 107
135 112 11 11 -211 9 -385 -2z"/>
</g>
</svg>
