<svg
  xmlns="http://www.w3.org/2000/svg"
  height="100%"
  viewBox="0 0 24 24"
  width="100%"
  fill="#000000"
>
  <path d="M0 0h24v24H0z" fill="none" />
  <path
    fill="blue"
    d="
    M18.92 5.01C18.72 4.42 18.16 4 17.5 4h-11c-.66
     0-1.21.42-1.42 1.01L3 11v8c0 .55.45 1 1 
     1h1c.55 0 1-0.45 1-1v-1h12v1c0 .55.45 1 1
      1h1c0 0 1-.45 1-1v-8l-2.08-5.99zM6.5 15c-.83
       0-1.5-.67-1.5-1.5S5.67
        12 6.5 12s1.5.67 
       1.5 1.5S7.33 15 6.5 15zm11 0c-.83 
       0-1.5-.67-1.5-1.5s.67-1.5 1.5-1.5 1.5.67
        1.5 1.5-.67 1.5-1.5 1.5zM5 10l1.5-4.5h11L19 10H5z"
  />
  <g fill="black" stroke="none">
    <path
      fill="black"
      stroke="none"
      d="M 3 18 
      Q 2.8 20.1 4.5 20.1
      Q 6.2 20.1 5.9 18"
    />
    <path
      fill="black"
      stroke="none"
      d="M 18 18 
      Q 17.8 20.1 19.5 20.1
      Q 21.2 20.1 20.9 18"
    />
  </g>
  <!-- Code injected by live-server -->
</svg>
