<svg xmlns="http://www.w3.org/2000/svg" width="256" height="256"><path fill-opacity=".016" d="M0 128.004v128.004l128.25-.254 128.25-.254.254-127.75L257.008 0H0v128.004m.485.496c0 70.4.119 99.053.265 63.672.146-35.38.146-92.98 0-128C.604 29.153.485 58.1.485 128.5" fill="#1976D2" fill-rule="evenodd"/><path fill-opacity=".446" d="M71.324 38.423C59.275 42.238 48.875 54.065 41.359 72.5c-3.561 8.736-7.696 24.034-8.852 32.75l-.63 4.75h-6.538c-6.103 0-6.766.227-9.939 3.4-7.414 7.414-1.568 16.6 10.566 16.6h4.031l-3.426 4.768c-4.805 6.689-5.842 11.866-5.39 26.916.453 15.097 1.803 18.608 9.804 25.498l5.014 4.318.001 7.327c0 6.764.224 7.551 2.923 10.25 2.923 2.922 2.926 2.923 15.566 2.923 6.953 0 13.508-.463 14.566-1.03 3.044-1.629 4.945-6.403 4.945-12.42V193h105v5.777c0 5.738 1.417 9.154 4.954 11.941 1.031.813 5.897 1.229 14.609 1.25l13.063.032 2.915-3.043c2.637-2.752 2.935-3.762 3.133-10.592.213-7.384.296-7.608 3.767-10.207 8.243-6.172 10.561-12.553 10.553-29.057-.006-14.659-.849-18.447-5.441-24.464l-3.367-4.41 5.87-.425c6.298-.455 9.022-2.118 11.583-7.071 1.268-2.452 1.24-3.183-.237-6.296-2.177-4.588-5.946-6.435-13.13-6.435h-5.828l-1.751-12.078c-4.154-28.657-14.672-49.61-28.845-57.46L185.5 37.5l-55-.2c-43.277-.157-55.89.082-59.176 1.123M70.5 48.884C64.022 51.863 57.337 59.507 52.47 69.5 45.863 83.067 41 104.113 41 119.142c0 5.491.174 5.97 2.059 5.678 1.452-.226 2.747-2.02 4.396-6.09 2.986-7.37 6.563-12.028 12.526-16.312l4.75-3.412-2.366-4.673c-4.357-8.607-2.235-17.124 5.9-23.675 2.986-2.404 4.954-3.113 9.5-3.419 5.038-.34 6.308-.019 10.444 2.639C93.565 73.32 98 80.766 98 86.318c0 1.861-1.091 5.437-2.425 7.945l-2.425 4.561 5.466 4.088c3.007 2.248 5.647 4.088 5.868 4.088.221 0 1.992-.938 3.936-2.085l3.534-2.085-1.977-3.875c-3.599-7.055-2.35-14.844 3.334-20.79C117.704 73.57 121.092 72 126.612 72c13.491 0 22.653 15.211 16.469 27.341l-1.919 3.764 4.359 2.118 4.36 2.118 3.918-3.54c2.155-1.947 4.544-3.753 5.309-4.014 1.12-.382.977-1.238-.729-4.381-4.514-8.312-3.795-14.723 2.425-21.616 8.278-9.173 19.113-9.175 27.389-.003 5.585 6.189 6.431 15.719 1.954 22.006l-2.055 2.887 4.255 2.999c5.981 4.216 11.702 11.553 13.754 17.64 1.449 4.299 2.195 5.236 4.381 5.503l2.634.322-.656-8.822c-2.756-37.086-11.25-60.052-24.687-66.748L182.607 47l-54.053.022c-50.341.02-54.329.148-58.054 1.862" fill="#1976D2" fill-rule="evenodd"/><path fill-opacity=".288" d="M68.244 39.976c-6.342 2.879-10.737 6.582-15.906 13.401-8.326 10.983-15.663 29.521-18.365 46.4C32.004 112.075 32.852 111 25.116 111c-5.346 0-7.407.441-9.404 2.012-4.72 3.713-4.426 10.1.655 14.216 1.504 1.218 3.977 1.734 8.383 1.75 3.438.012 6.25.3 6.25.64s-1.406 2.22-3.125 4.177C22.638 139.76 22 142.474 22 158.789c0 14.22.117 15.084 2.75 20.281 1.722 3.399 4.316 6.55 6.939 8.429 4.188 3.001 4.189 3.002 4.25 9.704C36.056 210.101 38.558 212 55.435 212c11.22 0 11.619-.076 14.669-2.801 2.808-2.51 3.186-3.525 3.632-9.75l.497-6.949 52.633.089 52.634.089.5 7.25c.441 6.391.832 7.535 3.306 9.661 2.642 2.27 3.536 2.411 15.327 2.411 12.506 0 12.524-.004 15.444-2.923 2.724-2.724 2.926-3.456 2.961-10.75l.038-7.827 3.923-2.713c8.725-6.033 11.583-14.95 10.707-33.403-.57-12.003-2.122-16.654-7.109-21.308-1.428-1.334-2.597-2.796-2.597-3.25 0-.454 2.96-.826 6.577-.826 5.936 0 6.862-.285 9.5-2.923 3.93-3.93 3.93-8.224 0-12.154-2.673-2.673-3.521-2.923-9.906-2.923h-6.983l-.652-5.25c-4.274-34.43-15.562-58.371-30.926-65.593-4.531-2.13-5.289-2.157-60.849-2.135-53.439.021-56.474.119-60.517 1.954m.982 9.141C54.492 56.41 43.402 82.698 40.484 117.25l-.655 7.75h2.903c2.651 0 3.057-.49 4.684-5.652 1.383-4.386 3.159-7.043 7.933-11.867 3.383-3.418 7.042-6.688 8.131-7.267 1.963-1.042 1.961-1.084-.165-4.882-3.716-6.639-3.91-10.595-.829-16.892 6.262-12.799 20.441-14.904 29.897-4.438 6.002 6.644 6.676 15.369 1.707 22.09l-2.048 2.771 3.246 2.006c1.785 1.103 4.31 3.138 5.61 4.522l2.363 2.516 4.12-2.076c2.265-1.142 4.293-2.233 4.505-2.423.213-.191-.616-2.677-1.841-5.525-2.807-6.526-2.171-12.028 2.066-17.877 3.201-4.42 9.462-7.947 14.171-7.984 6.612-.052 13.755 4.82 16.828 11.478 2.384 5.165 2.338 9.916-.15 15.399-1.097 2.419-1.875 4.5-1.728 4.624.148.124 2.043 1.125 4.213 2.223l3.945 1.998 5.724-4.581 5.725-4.581-2.053-2.882c-4.682-6.576-3.138-17.342 3.325-23.181 9.7-8.764 23.09-5.997 28.882 5.966 2.687 5.551 2.276 11.726-1.149 17.267-1.786 2.891-1.916 3.632-.751 4.303 7.462 4.295 15.324 13.736 17.162 20.609 1.035 3.87 1.476 4.336 4.103 4.336h2.944l-.596-9.785c-1.752-28.752-9.259-52.902-19.382-62.351-6.517-6.083-4.108-5.864-64.524-5.863-54.295.001-55.378.039-59.574 2.116m4.794 28.167c-1.364.691-3.045 2.372-3.736 3.736-4.206 8.314 2.526 16.455 11.59 14.014C86.13 93.888 88 90.989 88 85.535c0-4.749-.831-6.396-4.072-8.072-3.45-1.784-6.622-1.841-9.908-.179m96.337-.339c-4.697 1.998-6.898 9.307-4.277 14.205 1.493 2.789 7.115 4.961 10.888 4.206 6.634-1.326 9.407-10.511 4.782-15.834-2.47-2.843-7.886-4.068-11.393-2.577m-50.434 6.978c-3.312 3.312-3.815 7.451-1.46 12.005 1.721 3.328 3.304 4.072 8.664 4.072 5.6 0 8.884-3.419 8.841-9.205-.034-4.622-1.206-6.796-4.652-8.632-3.898-2.076-8.225-1.407-11.393 1.76m-48.102 22.442c-2.574.71-6.24 2.48-8.147 3.935-3.483 2.656-9.08 12.235-8.087 13.841.292.472 10.854.859 23.472.859 17.829 0 22.941-.282 22.941-1.265 0-1.825-3.848-8.838-6.355-11.582-5.096-5.577-15.456-8.094-23.824-5.788m98.679-.721c-10.745 2.612-15.896 7.264-18.939 17.106l-.696 2.25h22.901c12.595 0 23.151-.25 23.457-.556 1.035-1.036-1.52-7.348-4.378-10.815-4.621-5.607-15.757-9.586-22.345-7.985m-51.5 5.23c-1.925.423-4.924 1.515-6.664 2.428l-3.164 1.66 1.613 5.045 1.613 5.044 14.511-.275 14.511-.276.83-3.5c.456-1.925.924-4.119 1.04-4.875.579-3.783-15.321-7.22-24.29-5.251m-78.082 24.277c-1.749.357-4.584 2.052-6.299 3.766l-3.119 3.116-.319 15.399c-.359 17.296.369 20.103 6.118 23.608 2.937 1.791 5.159 1.953 26.912 1.956l23.712.004 1.081-4.013c1.326-4.926 6.037-10.457 11.111-13.046 3.434-1.752 6.007-1.941 26.377-1.941 16.746 0 23.411.35 25.82 1.357 4.85 2.027 9.425 7.134 11.417 12.745l1.771 4.992 24.828-.297 24.829-.297 3.336-3.642c2.62-2.861 3.487-4.847 4.038-9.257 1.129-9.04.11-24.623-1.854-28.334-3.504-6.622 1.073-6.297-92.129-6.544-46.447-.122-85.881.07-87.63.428m5.701 9.883c-8.733 2.615-13.168 13.273-8.624 20.725 3.751 6.153 6.93 7.233 21.305 7.237 13.373.004 16.316-.705 20.047-4.827 2.884-3.186 4.546-9.054 3.55-12.527-1.193-4.162-6.599-9.465-10.853-10.646-4.282-1.19-21.41-1.164-25.425.038m134-.05c-8.786 2.785-13.164 13.33-8.624 20.775 3.765 6.175 6.91 7.234 21.505 7.234 11.212 0 13.448-.274 16.259-1.988 9.49-5.786 9.616-18.484.241-24.323-2.997-1.867-5.152-2.211-15-2.396-6.325-.118-12.796.196-14.381.698m-134.584 10.95c-1.452 2.713-1.29 4.668.536 6.495 1.238 1.238 3.905 1.571 12.566 1.571C71.543 164 74 163.201 74 159.165c0-4.677-1.384-5.165-14.665-5.165-11.102 0-12.363.183-13.3 1.934M180.2 155.2c-1.767 1.767-1.46 5.254.629 7.145 1.462 1.324 3.978 1.655 12.565 1.655 12.149 0 14.606-.813 14.606-4.835 0-4.668-1.395-5.165-14.5-5.165-8.078 0-12.499.399-13.3 1.2m-80.127 21.435c-1.14 1.449-2.073 3.474-2.073 4.5 0 1.776 1.354 1.865 28.5 1.865H155v-2.326c0-1.279-1.042-3.304-2.314-4.5-2.245-2.108-3.047-2.174-26.428-2.174h-24.113l-2.072 2.635M45 197.5v4.5h19v-9H45v4.5m144 0v4.5h19v-9h-19v4.5" fill="#1976D2" fill-rule="evenodd"/><path fill-opacity=".98" d="M71.139 39.147C54.538 43.925 39.025 70.169 33.692 102.5l-1.319 8-6.937.565c-8.65.706-9.895 1.275-11.866 5.429C10.339 123.303 15.606 129 25.135 129c3.226 0 5.865.221 5.865.491 0 .271-1.557 2.531-3.459 5.024-4.692 6.146-5.529 9.867-5.535 24.609-.008 16.852 2.023 22.506 10.26 28.565 3.07 2.259 3.261 2.784 3.772 10.36.47 6.985.878 8.322 3.272 10.716 2.699 2.698 2.909 2.735 15.685 2.735 12.137 0 13.092-.143 15.227-2.275 1.82-1.817 2.378-3.727 2.778-9.5l.5-7.225 53.25-.259 53.25-.259v6.059c0 6.992 1.747 11.067 5.472 12.764 1.501.684 7.112 1.195 13.125 1.195C214.36 212 217 209.869 217 197.145v-6.76l4.346-3.064c2.826-1.991 5.275-4.926 7-8.388 2.513-5.042 2.654-6.114 2.654-20.14 0-16.124-1.185-20.8-6.55-25.84-1.348-1.266-2.45-2.673-2.45-3.127 0-.454 2.745-.826 6.1-.826 5.604 0 6.377-.277 9.5-3.4 3.787-3.787 4.095-5.356 1.89-9.62-2.091-4.043-4.331-4.98-11.905-4.98-7.401 0-6.927.612-8.129-10.5-2.21-20.417-11.503-43.711-21.371-53.569-9.261-9.251-6.855-8.945-69.513-8.841-31.539.053-55.472.493-57.433 1.057m2.855 7.787C61.972 50.591 51.51 64.82 45.598 85.553c-4.193 14.703-7.1 37.612-5.035 39.677.31.31 1.695.261 3.078-.109 1.917-.513 2.928-1.894 4.255-5.814 2.223-6.568 5.859-11.302 12.569-16.368l5.342-4.033-2.523-4.513c-6.494-11.619 1.968-26.379 15.128-26.389 14.023-.011 22.915 14.885 16.053 26.889-1.382 2.417-2.389 4.465-2.238 4.553 4.012 2.339 6.784 4.288 8.914 6.266 2.589 2.405 2.705 2.419 6 .745 5.716-2.905 5.833-3.136 3.752-7.442-2.253-4.663-2.458-12.021-.444-15.916 2.124-4.108 7.972-8.866 12.343-10.043C135.257 69.7 147.968 83.859 143.48 96.1c-2.924 7.978-2.981 7.604 1.503 9.891 4.605 2.35 5.08 2.209 11.363-3.364 1.565-1.388 3.292-2.673 3.839-2.855.546-.182-.172-2.523-1.596-5.201-2.915-5.481-3.254-9.75-1.167-14.699 1.494-3.544 6.564-8.856 10.262-10.752 2.817-1.444 10.819-1.443 13.632.002 3.229 1.659 7.667 6.004 9.273 9.078 2.185 4.183 1.786 12.231-.839 16.936l-2.25 4.032 2.491 1.666c7.88 5.27 14.06 13.145 16.092 20.506.701 2.536 1.618 3.561 3.511 3.923 3.519.672 3.808-.596 3.034-13.336-2.09-34.406-13.572-60.764-28.246-64.838-4.493-1.247-106.327-1.39-110.388-.155m.335 29.501C70.333 78.202 69 80.68 69 86.345c0 3.772.485 4.885 3.077 7.066C78.283 98.633 87.42 95.643 88.615 88c1.352-8.652-6.5-15.008-14.286-11.565m95.986.029C166.983 77.913 164 82.418 164 86c0 2.934 2.65 7.742 4.945 8.97 1.058.567 3.774 1.03 6.035 1.03 5.865 0 9.02-3.33 9.02-9.52 0-5.893-1.328-8.301-5.548-10.065-4.069-1.699-4.119-1.699-8.137.049m-45.349 4.527c-4.786.845-5.936 1.692-7.555 5.569-1.861 4.453-.817 8.921 2.795 11.96 5.369 4.518 13.671 2.411 15.789-4.006 1.447-4.384.573-8.658-2.297-11.239-2.907-2.615-4.502-3.032-8.732-2.284m-55.341 25.478c-4.672 1.665-10.106 6.685-12.713 11.741-3.654 7.089-4.623 6.79 21.994 6.79h23.907l-1.005-3.275c-4.017-13.088-18.717-20.056-32.183-15.256m94.393.608c-5.866 2.661-7.74 4.449-10.626 10.14-4.176 8.235-5.408 7.783 21.233 7.783h23.625l-.634-3.25c-1.033-5.292-5.657-10.906-11.497-13.957-6.738-3.519-15.309-3.797-22.101-.716m-48.518 4.249c-6.925 2.71-7.078 2.945-5.407 8.329l1.504 4.845 15.096.275 15.095.276 1.22-5.082c1.107-4.615 1.047-5.214-.645-6.506-1.024-.782-3.438-1.879-5.363-2.437-4.661-1.351-17.746-1.169-21.5.3M36.898 136.27c-5.811 3.882-6.895 7.421-6.896 22.52-.002 15.789 1.396 19.842 8.008 23.215 3.716 1.896 5.536 2.014 27.151 1.763l23.168-.268 1.588-4.749c1.75-5.235 5.643-9.904 10.451-12.536 2.635-1.443 6.627-1.763 25.132-2.017l22-.303 5.499 2.803c6.162 3.14 9.71 7.631 10.644 13.473l.613 3.829h24.224c23.52 0 24.323-.066 27.622-2.27 5.877-3.926 6.895-7.357 6.893-23.23-.003-15.693-.963-18.681-7.236-22.505-3.185-1.943-5.209-1.988-89.361-1.991L40.296 134l-3.398 2.27m7.358 10.375C39.775 148.854 37 153.706 37 159.333c0 3.713.595 5.275 3.093 8.12 4.2 4.784 8.492 5.851 21.71 5.398 9.284-.317 11.544-.717 13.892-2.457 3.803-2.818 7.305-8.158 7.305-11.141 0-3.991-3.033-9.203-6.875-11.814-3.338-2.268-4.466-2.437-16.107-2.416-9.417.017-13.322.419-15.762 1.622m134.244-.112c-6.962 3.454-10.034 13.596-5.825 19.234 4.424 5.926 6.556 6.706 19.367 7.087 10.491.313 12.408.106 16.243-1.75 4.58-2.217 8.715-7.952 8.715-12.089 0-3.77-3.121-9.025-6.875-11.576-3.338-2.268-4.466-2.437-16.107-2.416-9.033.016-13.353.437-15.518 1.51M46.75 154.08c-2.037 1.186-2.395 6.875-.55 8.72.801.801 5.222 1.2 13.3 1.2s12.499-.399 13.3-1.2c1.954-1.954 1.483-7.578-.734-8.765-2.488-1.331-23.016-1.295-25.316.045m134 0c-2.037 1.186-2.395 6.875-.55 8.72.808.808 5.37 1.2 13.965 1.2 11.597 0 12.859-.177 13.8-1.934 1.536-2.871 1.268-4.833-.965-7.066-1.767-1.767-3.31-1.996-13.25-1.97-6.187.017-12.037.489-13 1.05m-80.295 21.375C98.918 176.991 98 179.053 98 180.97v3.061l28.75-.266 28.75-.265-.213-3c-.127-1.793-1.255-3.905-2.805-5.25-2.531-2.196-3.159-2.25-26.083-2.25h-23.49l-2.454 2.455M45 197.464V203h20.105l-.303-5.25-.302-5.25-9.75-.286-9.75-.286v5.536m143.7-4.831c-.385.385-.7 2.891-.7 5.569v4.868l10.25-.285 10.25-.285v-10l-9.55-.284c-5.252-.156-9.864.032-10.25.417" fill="#1976D2" fill-rule="evenodd"/></svg>