<svg xmlns="http://www.w3.org/2000/svg" width="256" height="256"><path fill-opacity=".016" d="M0 128.004v128.004l128.25-.254 128.25-.254.254-127.75L257.008 0H0v128.004m.485.496c0 70.4.119 99.053.265 63.672.146-35.38.146-92.98 0-128C.604 29.153.485 58.1.485 128.5" fill="#1976D2" fill-rule="evenodd"/><path fill-opacity=".43" d="M10.745 51.25c-3.044 9.418-6.264 23.567-7.282 32C2.999 87.096 2.319 89 1.407 89 .276 89 .041 97.61.019 139.797l-.027 50.796 3.977 2.454 3.977 2.453.027 8.25L8 212h50v-13.5l69.75.079 69.75.078.296 6.672.295 6.671H248l.022-8.25.022-8.25 4.476-3 4.476-3 .002-37.219c.002-34.987-.103-37.186-1.748-36.674-1.667.518-1.667.49 0-.581 1.518-.976 1.75-2.833 1.75-13.982 0-12.196-.099-12.831-1.924-12.354-1.65.432-2.012-.188-2.538-4.343-1.274-10.073-4.57-28.09-6.282-34.347l-1.779-6.5-6.232-.298-6.232-.297 1.023 2.69c1.453 3.823 4.614 18.576 5.872 27.405 1.533 10.767 3.324 33.816 2.705 34.817-.289.467-1.874.652-3.523.41-2.685-.395-3.219-1.106-5.118-6.811-2.55-7.663-9.432-16.856-16.703-22.312-2.877-2.159-5.741-4.095-6.364-4.302-.704-.235-.144-1.834 1.48-4.227 5.039-7.427 5.745-16.041 1.963-23.971L211.63 43H170.027l-1.63 3.75c-3.6 8.282-2.757 17.257 2.249 23.962l2.398 3.213-2.772 1.758c-1.525.967-4.927 3.545-7.562 5.728l-4.79 3.969-5.354-2.801-5.354-2.801 2.609-5.639c3.616-7.818 3.497-14.946-.369-22.049-4.785-8.792-5.505-9.09-21.983-9.09h-14.262l-3.085 3.513c-4.399 5.011-6.215 8.97-6.809 14.85-.491 4.86.075 7.158 4.153 16.852.573 1.363-.409 2.269-4.789 4.417l-5.511 2.703-5.191-4.668c-2.855-2.567-5.48-4.674-5.833-4.682-.353-.009-1.249-.401-1.992-.871-1.08-.685-.846-1.629 1.176-4.735 5.126-7.876 5.641-15.603 1.57-23.582L84.959 43H43.902l-1.929 4.25c-2.496 5.499-2.52 13.948-.055 19.377 1.03 2.269 2.371 4.433 2.978 4.809 2.178 1.346 1.023 3.28-3.845 6.434-8.779 5.689-15.964 15.405-19.068 25.786-1.038 3.47-1.731 4.227-4.206 4.59-1.896.278-3.149-.052-3.481-.917-.835-2.175 1.633-26.764 3.689-36.757 1.039-5.049 3.22-13.319 4.846-18.376L25.789 43H13.412l-2.667 8.25M.392 102c0 7.425.157 10.463.35 6.75.192-3.713.192-9.787 0-13.5-.193-3.713-.35-.675-.35 6.75m.062 51.5c-.001 20.9.132 29.592.294 19.316.163-10.276.163-27.376.001-38C.587 124.192.454 132.6.454 153.5" fill="#1976D2" fill-rule="evenodd"/><path fill-opacity=".469" d="M13.632 43.787C11.297 47.565 3 82.926 3 89.099c0 .496-.675.901-1.5.901C.251 90 0 91.978 0 101.8c0 7.164.427 12.227 1.087 12.887.783.783.783 1.275 0 1.759C.336 116.91 0 128.393 0 153.545v36.427l4 2.647 4 2.647V212h50v-14h140v14h49v-15.83l5-3.67 5-3.67v-36.474c0-22.257-.363-36.25-.931-35.899-1.621 1.002-2.114-1.175-.558-2.466 1.165-.967 1.489-3.804 1.489-13.02 0-11.093-.112-11.755-1.904-11.286-2.217.58-2.65-.536-3.571-9.185-.715-6.721-3.058-19.977-4.546-25.721-.538-2.078-1.446-5.579-2.018-7.779l-1.038-4h-5.462c-3.003 0-5.456.337-5.45.75.006.413.671 2.927 1.478 5.588 3.554 11.711 7.511 40.11 7.511 53.896v5.887l-3.624-.311c-3.505-.3-3.686-.513-5.531-6.544-2.946-9.629-10.794-19.132-21.696-26.272l-2.299-1.506 3.075-5.845c3.727-7.085 4.121-14.741 1.102-21.393L211.098 43h-19.927c-14.726 0-20.194.326-20.953 1.25-.565.688-1.788 3.586-2.718 6.44-2.06 6.322-.9 13.572 3.151 19.708 2.301 3.485 2.4 3.994.937 4.813-.9.503-4.318 3.148-7.597 5.876l-5.962 4.962-4.944-2.506c-2.719-1.378-5.217-2.948-5.552-3.49-.335-.541.347-2.857 1.515-5.146 4.787-9.385 3.325-20.167-3.806-28.061L141.767 43H114.406l-3.654 3.75c-7.177 7.365-8.934 17.451-4.659 26.75 1.264 2.75 2.322 5.378 2.352 5.84.03.463-2.377 2.127-5.35 3.699l-5.404 2.859-4.596-4.05c-2.527-2.227-5.832-4.69-7.345-5.474-1.513-.784-2.75-1.593-2.75-1.798 0-.205 1.35-2.939 3-6.076 3.776-7.178 4.047-14.291.801-20.973L84.601 43H64.824c-22.502 0-21.399-.426-23.974 9.25-1.511 5.677-.202 12.041 3.7 17.979 1.348 2.05 2.45 3.951 2.45 4.224 0 .273-1.449 1.245-3.221 2.161-4.52 2.338-14.539 12.115-17.304 16.886-1.275 2.2-3.06 6.588-3.967 9.75-1.613 5.62-1.731 5.75-5.224 5.75h-3.575l.57-12.25c.625-13.454 4.215-33.121 8.176-44.791 1.392-4.102 2.534-7.796 2.538-8.209.009-1.002-10.741-.967-11.361.037m44.131 1.778c-5.669 3.076-7.618 12.88-3.805 19.134 3.057 5.014 11.838 6.529 18.282 3.153 3.216-1.685 5.017-6.744 4.522-12.707-.396-4.782-.912-5.907-3.822-8.337-3.878-3.237-10.502-3.779-15.177-1.243m126.008.18C180.859 47.551 178 53.409 178 57.57c0 3.533 2.461 7.91 5.774 10.269 4.379 3.118 12.498 2.351 16.399-1.55 5.545-5.545 4.72-16.554-1.526-20.363-3.921-2.391-11.17-2.479-14.876-.181M122 51.752c-6.491 3.242-8.938 12.558-4.996 19.023 2.287 3.751 5.421 5.225 11.111 5.225 8.098 0 12.44-4.604 12.314-13.057-.086-5.782-2.407-9.618-6.975-11.527-4.464-1.865-7.21-1.784-11.454.336M57 83.367c-10.512 3.036-17.18 8.413-21.078 16.996-3.716 8.185-5.798 7.637 29.026 7.637h30.948l-1.091-3.13c-2.053-5.887-5.964-11.851-10.092-15.383-6.788-5.811-19.252-8.563-27.713-6.12m126.5.032c-11.745 2.888-19.203 10.106-22.569 21.842L160.14 108h62.077l-.667-2.75c-.933-3.853-4.334-10.314-6.893-13.095-3.335-3.626-10.289-7.33-16.51-8.795-6.7-1.577-8.089-1.573-14.647.039m-66.156 6.576c-4.09.874-12.344 4.593-12.344 5.56 0 .273.751 3.198 1.67 6.501l1.669 6.005 19.444-.27 19.444-.271 1.764-5.705c2.036-6.583 1.609-7.393-5.464-10.348-4.569-1.909-20.066-2.781-26.183-1.472M.385 102c0 6.875.16 9.688.355 6.25.196-3.437.196-9.062 0-12.5-.195-3.437-.355-.625-.355 6.25m.014 51.5c.009 20.35.166 32.76.348 27.577l.333-9.423 2.105 4.255c1.175 2.374 3.792 5.371 5.923 6.781 4.974 3.292 12.927 3.804 43.997 2.833l23.501-.734 1.673-4.711c3.287-9.257 10.677-16.861 18.496-19.032 2.149-.597 15.389-1.037 31.297-1.04 30.821-.007 33.581.437 40.723 6.551 4.498 3.85 9.205 12.358 9.205 16.639V186h31.04c28.834 0 31.312-.139 34.874-1.956 4.446-2.268 8.761-7.037 9.836-10.871.413-1.47.75-10.998.75-21.173 0-18.385-.017-18.526-2.687-22.63-1.657-2.548-4.365-4.943-7.066-6.25l-4.378-2.12-112.435.022c-107.287.021-112.621.107-116.513 1.874-4.439 2.017-8.048 5.948-9.193 10.016-.495 1.759-.907-.454-1.287-6.912-.307-5.225-.551 7.15-.542 27.5m21.238-18.035c-4.698 1.675-9.17 5.772-11.729 10.745-4.42 8.595-.376 18.773 9.592 24.137 3.618 1.948 5.527 2.153 20 2.153 15.691 0 16.091-.054 20.723-2.777 5.895-3.465 10.114-10.187 10.102-16.095-.017-8.272-6.374-16.216-14.825-18.524-5.789-1.581-29.112-1.333-33.863.361m180.863-1.027c-.55.213-2.249.663-3.775 1-4.075.9-10.367 7.057-12.25 11.988-3.795 9.938 2.773 21.397 14.025 24.47 5.682 1.552 28.118 1.331 32.752-.323 12.582-4.49 18.037-17.493 11.489-27.387-1.517-2.293-4.634-5.41-6.926-6.927-4.038-2.673-4.638-2.766-19.242-2.983-8.29-.124-15.523-.05-16.073.162M21.557 149.223C20.701 150.445 20 152.37 20 153.5c0 1.13.701 3.055 1.557 4.277 1.497 2.138 2.16 2.223 17.428 2.223 13.096 0 16.147-.275 17.444-1.571 1.852-1.853 2.093-8.507.371-10.229-.835-.835-6.143-1.2-17.443-1.2-15.652 0-16.3.081-17.8 2.223m177.098-.394c-2.08 2.298-2.121 6.06-.098 8.948 1.498 2.139 2.158 2.223 17.5 2.223 14.893 0 16.082-.139 18.056-2.113 1.654-1.654 1.987-2.883 1.535-5.669-.317-1.956-1.156-3.923-1.863-4.372-.707-.448-8.528-.822-17.38-.831-14.334-.013-16.276.185-17.75 1.814M94.367 174.772c-2.751 2.229-4.367 5.434-4.367 8.662V186h76.262l-.596-3.75c-.384-2.412-1.685-4.731-3.647-6.5l-3.051-2.75-31.234.022c-28.083.02-31.449.197-33.367 1.75M20 204.47V211h26.095l-.297-6.25-.298-6.25-12.75-.28-12.75-.28v6.53m190 0V211h26.095l-.297-6.25-.298-6.25-12.75-.28-12.75-.28v6.53" fill="#1976D2" fill-rule="evenodd"/><path fill-opacity=".974" d="M12.155 49.25C7.843 62.671 4 80.188 4 86.422c0 1.924-.608 2.924-2 3.288-1.857.486-2 1.364-2 12.323 0 8.529.347 11.927 1.25 12.259 1 .366 1 .723 0 1.783-.852.903-1.217 4.683-1.148 11.875.069 7.051.352 9.502.856 7.39 1.27-5.33 4.449-9.732 8.748-12.112l4.103-2.273 114.08-.011c98.863-.01 114.463.187 116.947 1.471 4.583 2.37 9.078 8.193 9.797 12.692 1.103 6.898 2.335 2.227 2.352-8.916.009-6.112-.364-10.075-.916-9.734-.512.317-1.25.059-1.64-.572-.391-.632.028-1.561.931-2.066 1.375-.77 1.64-2.819 1.64-12.698 0-11.573-.04-11.778-2.25-11.7-2.007.07-2.338-.57-3.063-5.921-1.234-9.095-6.352-34.634-7.566-37.75-.975-2.504-1.531-2.75-6.203-2.75-4.199 0-5.025.279-4.544 1.532 3.588 9.351 7.529 33.208 8.295 50.218l.642 14.25h-4.037c-3.967 0-4.057-.08-5.204-4.634-2.501-9.934-10.222-20.046-20.188-26.442-2.685-1.723-4.882-3.281-4.882-3.462 0-.181 1.463-2.682 3.25-5.557 2.809-4.519 3.25-6.123 3.25-11.817 0-4.841-.544-7.516-2.053-10.088l-2.052-3.5-8.448-.136c-4.646-.075-7.456.066-6.245.313 1.211.247 3.574 2.012 5.25 3.921 2.659 3.029 3.048 4.223 3.048 9.36 0 4.867-.446 6.419-2.573 8.946-4.971 5.908-15.19 6.17-20.492.527-2.088-2.223-2.435-3.563-2.435-9.407 0-7.55 1.455-10.174 7-12.621 2.786-1.23 2.379-1.328-5.703-1.364L171.094 43l-2.135 4.75c-3.035 6.755-2.825 12.984.676 20.004 1.576 3.16 2.865 6.038 2.865 6.395 0 1.039-13.545 11.852-14.833 11.842-.642-.006-3.563-1.384-6.491-3.063-5.165-2.962-5.279-3.122-3.819-5.351.828-1.263 2.237-4.811 3.13-7.884 2.53-8.705.598-15.743-6.3-22.943L140.594 43h-12.393c-14.24 0-16.258.828-20.765 8.518-3.969 6.774-4.267 13.564-.957 21.837 1.493 3.732 2.558 6.921 2.368 7.087-.824.716-10.392 5.558-10.983 5.558-.359 0-2.163-1.413-4.008-3.141-1.846-1.727-5.156-4.263-7.356-5.634-2.2-1.372-4.135-2.606-4.299-2.742-.165-.137.82-1.898 2.188-3.915 5.325-7.846 5.939-16.668 1.659-23.818L83.802 43l-8.651.136c-4.758.075-7.655.329-6.437.565 6.022 1.166 10.283 9.172 8.875 16.677-1.853 9.875-15.618 13.503-23.046 6.074-6.571-6.571-2.91-21.076 5.743-22.751 1.218-.236-1.749-.49-6.592-.565L44.888 43l-2.052 4.638c-2.895 6.545-2.276 15.588 1.454 21.224 1.49 2.252 2.71 4.533 2.71 5.069 0 .535-2.114 2.428-4.699 4.206-5.675 3.904-13.854 12.245-16.047 16.363-.878 1.65-2.366 5.475-3.307 8.5-1.69 5.433-1.761 5.504-5.927 5.812l-4.216.313.687-9.813c1.253-17.915 4.849-36.762 9.591-50.277C24.137 46.029 25 43.441 25 43.285c0-.157-2.438-.285-5.418-.285h-5.419l-2.008 6.25m109.233 1.73c-6.072 2.454-8.72 11.22-5.552 18.382 2.583 5.84 6.616 8.041 13.518 7.378 4.182-.402 5.576-1.087 8.334-4.097 2.838-3.096 3.312-4.339 3.312-8.678 0-6.149-2.048-10.421-5.967-12.448-3.166-1.637-10.234-1.915-13.645-.537M52.424 84.057c-7.146 2.749-12.772 7.952-16.356 15.122C30.745 109.833 28.333 109 64.5 109c36.12 0 33.648.853 28.36-9.781-7.231-14.543-24.862-21.154-40.436-15.162m126.176.416c-3.245 1.334-7.462 3.911-9.37 5.726-3.571 3.397-10.572 16.438-9.637 17.952.696 1.126 62.133 1.101 62.83-.026 2.094-3.388-7.897-18.164-14.803-21.893-9.091-4.908-19.783-5.556-29.02-1.759m-63.1 5.398c-5.222 1.505-11.5 4.629-11.5 5.723 0 .2.966 3.308 2.147 6.906l2.148 6.541 19.602-.27 19.603-.271 1.837-5.803c1.01-3.191 1.594-6.434 1.298-7.205-.764-1.99-7.221-5.052-13.434-6.369-7.305-1.548-14.605-1.296-21.701.748M.385 102c0 6.875.16 9.688.355 6.25.196-3.437.196-9.062 0-12.5-.195-3.437-.355-.625-.355 6.25m-.011 25.5c.002 6.05.167 8.396.366 5.213.199-3.182.197-8.132-.004-11-.201-2.867-.364-.263-.362 5.787m18.747 9.669C13.125 140.137 9 146.689 9 153.245c0 5.824 1.699 9.406 6.436 13.564 5.173 4.542 9.952 5.449 26.554 5.038 13.071-.324 14.88-.589 18.242-2.674 4.554-2.823 7.137-6.318 8.813-11.923 2.273-7.598-1.993-16.142-10.131-20.294-3.327-1.697-5.925-1.956-19.624-1.955-14.182 0-16.236.221-20.169 2.168m178.379-.781c-4.38 1.912-10.275 8.894-11.065 13.108-1.496 7.975 2.188 15.594 9.671 20.004 3.024 1.782 5.192 2 19.894 2 17.741 0 21.053-.734 25.717-5.699 2.847-3.03 5.283-8.937 5.283-12.809 0-6.021-4.968-12.973-11.7-16.375-4.172-2.108-33.094-2.283-37.8-.229M21.911 147.871c-1.673 1.354-2.311 2.909-2.311 5.629 0 2.72.638 4.275 2.311 5.629C23.935 160.768 26.05 161 38.976 161c13.412 0 14.994-.189 17.389-2.073 3.444-2.709 3.592-7.679.321-10.753-2.165-2.034-3.288-2.174-17.39-2.174-13.238 0-15.356.228-17.385 1.871m177.312-.314c-3.003 2.103-3.09 8.576-.155 11.511 1.948 1.948 2.999 2.049 18.083 1.75 14.49-.288 16.149-.503 17.432-2.259 2.068-2.833 1.772-8.204-.583-10.559-1.825-1.825-3.333-2-17.277-2-12.209 0-15.724.313-17.5 1.557M93.5 162.89c-7.342 3.389-12.147 9.609-15.147 19.61l-.9 3-31.815.264c-31.283.26-31.882.227-35.776-1.962-4.252-2.389-7.701-7.097-8.908-12.16-.497-2.086-.784.408-.852 7.415L0 189.615l4.5 3.172 4.5 3.172V212l5.25.002 5.25.002V198.5l13.25-.279 13.25-.279V212h11v-7c0-4.892.377-7.024 1.25-7.078 5.21-.327 138.866-.14 139.2.195.236.236.528 3.456.647 7.156l.218 6.727 5.593.002 5.592.003-.332-7.003-.332-7.002H236v14h11v-8.474c0-8.213.085-8.521 2.75-9.98 6.927-3.791 7.25-4.481 7.25-15.456 0-6.06-.399-10.09-1-10.09-.55 0-1 .922-1 2.05 0 4.913-5.3 12.017-11.238 15.062-3.485 1.787-5.858 1.899-34.988 1.652l-31.25-.264-.693-4.846c-1.16-8.114-7.351-15.466-16.103-19.123-3.016-1.26-8.931-1.527-33.446-1.509-26.816.02-30.18.206-33.782 1.868M.374 179.5c.002 6.05.167 8.396.366 5.213.199-3.182.197-8.132-.004-11-.201-2.867-.364-.263-.362 5.787m95.656-6.221c-3.151 1.595-7.03 7.316-7.03 10.369V186h77l-.032-3.25c-.036-3.684-1.687-6.266-5.702-8.913-2.52-1.662-5.386-1.823-32.266-1.816-21.6.006-30.161.343-31.97 1.258" fill="#1976D2" fill-rule="evenodd"/></svg>