<?xml version="1.0" standalone="no"?>
<!DOCTYPE svg PUBLIC "-//W3C//DTD SVG 20010904//EN"
 "http://www.w3.org/TR/2001/REC-SVG-20010904/DTD/svg10.dtd">
<svg version="1.0" xmlns="http://www.w3.org/2000/svg"
 width="494.000000pt" height="359.000000pt" viewBox="0 0 494.000000 359.000000"
 preserveAspectRatio="xMidYMid meet">

<g transform="translate(0.000000,359.000000) scale(0.100000,-0.100000)"
fill="#000000" stroke="none">
<path d="M2507 2723 c-10 -17 -36 -153 -46 -238 -21 -182 -22 -301 -7 -515 22
-299 34 -521 42 -760 4 -113 10 -211 14 -219 4 -8 10 44 14 115 20 390 38 677
51 822 19 207 19 403 0 563 -8 69 -17 132 -19 140 -3 8 -10 33 -16 57 -10 39
-23 52 -33 35z"/>
<path d="M1927 2633 c-7 -37 9 -226 29 -333 22 -121 68 -292 114 -421 41 -114
165 -510 240 -764 23 -77 46 -144 52 -150 7 -7 8 -4 4 10 -15 51 -148 741
-176 910 -35 214 -55 301 -106 460 -39 119 -127 315 -142 315 -5 0 -12 -12
-15 -27z"/>
<path d="M3041 2558 c-90 -185 -151 -391 -196 -657 -26 -155 -102 -534 -154
-775 -30 -137 -36 -175 -26 -164 3 2 37 108 75 234 39 126 122 382 185 569
135 402 174 564 182 763 4 94 3 132 -5 132 -7 0 -34 -46 -61 -102z"/>
<path d="M1380 2429 c0 -44 73 -239 144 -384 41 -82 115 -212 166 -289 106
-161 271 -425 425 -679 59 -98 109 -176 112 -174 2 3 -19 51 -48 108 -92 183
-269 559 -355 752 -124 279 -239 473 -371 625 -58 66 -73 75 -73 41z"/>
<path d="M3603 2397 c-141 -146 -273 -364 -424 -702 -29 -66 -127 -268 -217
-449 -89 -181 -161 -333 -160 -337 2 -5 73 105 158 243 85 139 226 360 313
492 173 262 223 348 292 505 52 117 99 271 87 283 -4 4 -26 -11 -49 -35z"/>
<path d="M906 2102 c-8 -13 69 -143 137 -234 98 -131 210 -249 373 -399 87
-79 248 -232 359 -339 278 -271 319 -309 323 -305 3 2 -58 77 -135 167 -203
238 -322 382 -475 573 -187 235 -382 422 -550 529 -14 9 -29 13 -32 8z"/>
<path d="M4064 2059 c-152 -97 -338 -274 -507 -484 -138 -171 -326 -393 -510
-605 -70 -80 -127 -149 -127 -154 0 -5 37 26 83 70 240 231 479 457 617 581
223 201 333 324 452 508 80 123 78 138 -8 84z"/>
<path d="M534 1649 c-10 -17 119 -142 241 -233 141 -106 195 -140 379 -238
180 -96 380 -208 649 -365 109 -64 200 -113 202 -111 3 3 -109 85 -248 184
-138 98 -351 253 -472 344 -121 91 -261 191 -311 222 -178 110 -425 221 -440
197z"/>
<path d="M4425 1619 c-174 -59 -392 -183 -615 -349 -171 -128 -465 -338 -663
-474 -71 -49 -126 -90 -123 -93 2 -3 127 65 278 150 328 185 355 200 575 316
173 91 332 191 440 277 119 96 210 195 176 194 -5 -1 -35 -10 -68 -21z"/>
<path d="M280 1116 c0 -27 175 -122 355 -191 126 -49 184 -66 460 -134 174
-43 573 -151 778 -210 37 -11 67 -16 67 -13 0 4 -46 25 -102 46 -245 92 -654
254 -788 311 -223 95 -431 159 -595 184 -150 22 -175 23 -175 7z"/>
<path d="M4640 1099 c-196 -21 -406 -80 -670 -189 -184 -76 -419 -167 -675
-260 -93 -35 -181 -67 -194 -72 -13 -5 -21 -11 -18 -14 3 -3 81 16 174 41 184
51 630 164 843 215 74 17 191 52 260 77 183 66 394 174 387 198 -5 13 -19 14
-107 4z"/>
<path d="M262 566 c-139 -23 -132 -36 43 -81 191 -49 298 -55 976 -60 347 -2
630 -3 628 0 -2 2 -90 13 -194 25 -349 39 -598 71 -760 96 -199 32 -557 42
-693 20z"/>
<path d="M4340 559 c-74 -4 -216 -18 -315 -32 -172 -25 -640 -79 -810 -93
-200 -17 -73 -21 560 -19 722 3 764 5 956 55 105 27 134 39 123 50 -29 29
-295 49 -514 39z"/>
</g>
</svg>
